<mxfile host="app.diagrams.net" modified="2024-07-23T11:10:06.040Z" agent="Mozilla/5.0 (Windows NT 10.0; Win64; x64) AppleWebKit/537.36 (KHTML, like Gecko) Chrome/126.0.0.0 Safari/537.36" etag="5tMlyLTHYYWSMvaHEJ7p" version="24.6.4" type="device">
  <diagram id="C5RBs43oDa-KdzZeNtuy" name="Page-1">
    <mxGraphModel dx="2150" dy="1869" grid="1" gridSize="10" guides="1" tooltips="1" connect="1" arrows="1" fold="1" page="1" pageScale="1" pageWidth="827" pageHeight="1169" math="0" shadow="0">
      <root>
        <mxCell id="WIyWlLk6GJQsqaUBKTNV-0" />
        <mxCell id="WIyWlLk6GJQsqaUBKTNV-1" parent="WIyWlLk6GJQsqaUBKTNV-0" />
        <mxCell id="AbAtUM588FDry7frb0zo-27" style="edgeStyle=orthogonalEdgeStyle;rounded=0;orthogonalLoop=1;jettySize=auto;html=1;exitX=0.5;exitY=1;exitDx=0;exitDy=0;entryX=0.5;entryY=0;entryDx=0;entryDy=0;" edge="1" parent="WIyWlLk6GJQsqaUBKTNV-1" source="WIyWlLk6GJQsqaUBKTNV-3" target="AbAtUM588FDry7frb0zo-14">
          <mxGeometry relative="1" as="geometry" />
        </mxCell>
        <mxCell id="WIyWlLk6GJQsqaUBKTNV-3" value="Archivo.md" style="rounded=1;whiteSpace=wrap;html=1;fontSize=12;glass=0;strokeWidth=1;shadow=0;" parent="WIyWlLk6GJQsqaUBKTNV-1" vertex="1">
          <mxGeometry x="-183" y="-400" width="120" height="40" as="geometry" />
        </mxCell>
        <mxCell id="FmB_p1AP7Qhsc0N63zgv-0" style="edgeStyle=orthogonalEdgeStyle;rounded=0;orthogonalLoop=1;jettySize=auto;html=1;exitX=0.5;exitY=1;exitDx=0;exitDy=0;entryX=0.5;entryY=0;entryDx=0;entryDy=0;" parent="WIyWlLk6GJQsqaUBKTNV-1" source="WIyWlLk6GJQsqaUBKTNV-6" target="pxoGyMs8ow6GdQlPfcXt-1" edge="1">
          <mxGeometry relative="1" as="geometry">
            <mxPoint x="220" y="290" as="targetPoint" />
          </mxGeometry>
        </mxCell>
        <mxCell id="FmB_p1AP7Qhsc0N63zgv-6" style="edgeStyle=orthogonalEdgeStyle;rounded=0;orthogonalLoop=1;jettySize=auto;html=1;exitX=0.5;exitY=1;exitDx=0;exitDy=0;entryX=0.5;entryY=0;entryDx=0;entryDy=0;" parent="WIyWlLk6GJQsqaUBKTNV-1" source="WIyWlLk6GJQsqaUBKTNV-6" target="pxoGyMs8ow6GdQlPfcXt-6" edge="1">
          <mxGeometry relative="1" as="geometry">
            <mxPoint x="440" y="290" as="targetPoint" />
            <Array as="points">
              <mxPoint x="220" y="270" />
              <mxPoint x="440" y="270" />
            </Array>
          </mxGeometry>
        </mxCell>
        <mxCell id="FmB_p1AP7Qhsc0N63zgv-7" style="edgeStyle=orthogonalEdgeStyle;rounded=0;orthogonalLoop=1;jettySize=auto;html=1;exitX=0.5;exitY=1;exitDx=0;exitDy=0;entryX=0.5;entryY=0;entryDx=0;entryDy=0;" parent="WIyWlLk6GJQsqaUBKTNV-1" source="WIyWlLk6GJQsqaUBKTNV-6" target="pxoGyMs8ow6GdQlPfcXt-4" edge="1">
          <mxGeometry relative="1" as="geometry">
            <mxPoint x="-10" y="290" as="targetPoint" />
            <Array as="points">
              <mxPoint x="220" y="270" />
              <mxPoint x="-10" y="270" />
            </Array>
          </mxGeometry>
        </mxCell>
        <mxCell id="WIyWlLk6GJQsqaUBKTNV-6" value="&lt;b&gt;Cálculo %&lt;/b&gt; de idiomas" style="rhombus;whiteSpace=wrap;html=1;shadow=0;fontFamily=Helvetica;fontSize=12;align=center;strokeWidth=1;spacing=6;spacingTop=5;spacingLeft=5;spacingBottom=5;spacingRight=5;" parent="WIyWlLk6GJQsqaUBKTNV-1" vertex="1">
          <mxGeometry x="160" y="150" width="120" height="100" as="geometry" />
        </mxCell>
        <mxCell id="FmB_p1AP7Qhsc0N63zgv-11" style="edgeStyle=orthogonalEdgeStyle;rounded=0;orthogonalLoop=1;jettySize=auto;html=1;exitX=0.5;exitY=1;exitDx=0;exitDy=0;entryX=0.5;entryY=0;entryDx=0;entryDy=0;" parent="WIyWlLk6GJQsqaUBKTNV-1" source="pxoGyMs8ow6GdQlPfcXt-1" target="pxoGyMs8ow6GdQlPfcXt-2" edge="1">
          <mxGeometry relative="1" as="geometry">
            <mxPoint x="220" y="370" as="sourcePoint" />
            <mxPoint x="250" y="380" as="targetPoint" />
          </mxGeometry>
        </mxCell>
        <mxCell id="FmB_p1AP7Qhsc0N63zgv-15" style="edgeStyle=orthogonalEdgeStyle;rounded=0;orthogonalLoop=1;jettySize=auto;html=1;entryX=1;entryY=0.5;entryDx=0;entryDy=0;startArrow=none;startFill=0;endArrow=block;endFill=0;" parent="WIyWlLk6GJQsqaUBKTNV-1" target="FmB_p1AP7Qhsc0N63zgv-10" edge="1">
          <mxGeometry relative="1" as="geometry">
            <mxPoint x="170" y="450" as="sourcePoint" />
          </mxGeometry>
        </mxCell>
        <mxCell id="FmB_p1AP7Qhsc0N63zgv-16" style="edgeStyle=orthogonalEdgeStyle;rounded=0;orthogonalLoop=1;jettySize=auto;html=1;entryX=0;entryY=0.5;entryDx=0;entryDy=0;startArrow=none;startFill=0;endArrow=block;endFill=0;" parent="WIyWlLk6GJQsqaUBKTNV-1" target="WIyWlLk6GJQsqaUBKTNV-12" edge="1">
          <mxGeometry relative="1" as="geometry">
            <mxPoint x="270" y="450" as="sourcePoint" />
          </mxGeometry>
        </mxCell>
        <mxCell id="FmB_p1AP7Qhsc0N63zgv-19" style="edgeStyle=orthogonalEdgeStyle;rounded=0;orthogonalLoop=1;jettySize=auto;html=1;exitX=1;exitY=0.5;exitDx=0;exitDy=0;entryX=1;entryY=0.5;entryDx=0;entryDy=0;" parent="WIyWlLk6GJQsqaUBKTNV-1" source="WIyWlLk6GJQsqaUBKTNV-12" target="WIyWlLk6GJQsqaUBKTNV-3" edge="1">
          <mxGeometry relative="1" as="geometry" />
        </mxCell>
        <mxCell id="WIyWlLk6GJQsqaUBKTNV-12" value="&lt;b&gt;Fracaso&lt;/b&gt;:&lt;br&gt;Enviar al responsable" style="rounded=1;whiteSpace=wrap;html=1;fontSize=12;glass=0;strokeWidth=1;shadow=0;spacingLeft=5;spacingRight=5;spacingBottom=5;spacingTop=5;" parent="WIyWlLk6GJQsqaUBKTNV-1" vertex="1">
          <mxGeometry x="380" y="425" width="120" height="50" as="geometry" />
        </mxCell>
        <mxCell id="FmB_p1AP7Qhsc0N63zgv-12" style="edgeStyle=orthogonalEdgeStyle;rounded=0;orthogonalLoop=1;jettySize=auto;html=1;exitX=0.5;exitY=1;exitDx=0;exitDy=0;entryX=0.5;entryY=0;entryDx=0;entryDy=0;" parent="WIyWlLk6GJQsqaUBKTNV-1" source="pxoGyMs8ow6GdQlPfcXt-6" target="WIyWlLk6GJQsqaUBKTNV-12" edge="1">
          <mxGeometry relative="1" as="geometry">
            <mxPoint x="440" y="370" as="sourcePoint" />
          </mxGeometry>
        </mxCell>
        <mxCell id="FmB_p1AP7Qhsc0N63zgv-9" style="edgeStyle=orthogonalEdgeStyle;rounded=0;orthogonalLoop=1;jettySize=auto;html=1;exitX=0.5;exitY=1;exitDx=0;exitDy=0;entryX=0.5;entryY=0;entryDx=0;entryDy=0;" parent="WIyWlLk6GJQsqaUBKTNV-1" source="pxoGyMs8ow6GdQlPfcXt-4" target="FmB_p1AP7Qhsc0N63zgv-10" edge="1">
          <mxGeometry relative="1" as="geometry">
            <mxPoint x="80" y="420" as="targetPoint" />
            <mxPoint x="-10" y="370" as="sourcePoint" />
          </mxGeometry>
        </mxCell>
        <mxCell id="FmB_p1AP7Qhsc0N63zgv-10" value="&lt;b&gt;Éxito&lt;/b&gt;:&lt;br&gt;Siguiente Módulo" style="rounded=1;whiteSpace=wrap;html=1;fontSize=12;glass=0;strokeWidth=1;shadow=0;spacingLeft=5;spacingRight=5;spacingBottom=5;spacingTop=5;" parent="WIyWlLk6GJQsqaUBKTNV-1" vertex="1">
          <mxGeometry x="-70" y="430" width="120" height="40" as="geometry" />
        </mxCell>
        <mxCell id="FmB_p1AP7Qhsc0N63zgv-17" value="Sí" style="text;html=1;align=center;verticalAlign=middle;whiteSpace=wrap;rounded=0;" parent="WIyWlLk6GJQsqaUBKTNV-1" vertex="1">
          <mxGeometry x="70" y="420" width="60" height="30" as="geometry" />
        </mxCell>
        <mxCell id="FmB_p1AP7Qhsc0N63zgv-18" value="No" style="text;html=1;align=center;verticalAlign=middle;whiteSpace=wrap;rounded=0;" parent="WIyWlLk6GJQsqaUBKTNV-1" vertex="1">
          <mxGeometry x="300" y="420" width="60" height="30" as="geometry" />
        </mxCell>
        <mxCell id="pxoGyMs8ow6GdQlPfcXt-1" value="Entre 25-40%" style="rounded=1;whiteSpace=wrap;html=1;" parent="WIyWlLk6GJQsqaUBKTNV-1" vertex="1">
          <mxGeometry x="160" y="320" width="120" height="40" as="geometry" />
        </mxCell>
        <mxCell id="pxoGyMs8ow6GdQlPfcXt-2" value="&lt;b&gt;Revisión&lt;/b&gt;:&lt;div&gt;¿Es correcto?&lt;/div&gt;" style="rhombus;whiteSpace=wrap;html=1;spacingLeft=5;spacingBottom=14;spacingRight=5;spacingTop=5;" parent="WIyWlLk6GJQsqaUBKTNV-1" vertex="1">
          <mxGeometry x="166.25" y="397.5" width="107.5" height="105" as="geometry" />
        </mxCell>
        <mxCell id="pxoGyMs8ow6GdQlPfcXt-4" value="Entre 0-25%" style="rounded=1;whiteSpace=wrap;html=1;" parent="WIyWlLk6GJQsqaUBKTNV-1" vertex="1">
          <mxGeometry x="-70" y="320" width="120" height="40" as="geometry" />
        </mxCell>
        <mxCell id="pxoGyMs8ow6GdQlPfcXt-6" value="Entre 40-50%" style="rounded=1;whiteSpace=wrap;html=1;" parent="WIyWlLk6GJQsqaUBKTNV-1" vertex="1">
          <mxGeometry x="380" y="320" width="120" height="40" as="geometry" />
        </mxCell>
        <mxCell id="pxoGyMs8ow6GdQlPfcXt-10" style="edgeStyle=orthogonalEdgeStyle;rounded=0;orthogonalLoop=1;jettySize=auto;html=1;exitX=0.5;exitY=1;exitDx=0;exitDy=0;entryX=0.5;entryY=0;entryDx=0;entryDy=0;" parent="WIyWlLk6GJQsqaUBKTNV-1" source="pxoGyMs8ow6GdQlPfcXt-7" target="pxoGyMs8ow6GdQlPfcXt-9" edge="1">
          <mxGeometry relative="1" as="geometry" />
        </mxCell>
        <mxCell id="pxoGyMs8ow6GdQlPfcXt-7" value="&lt;b&gt;Preprocesamiento&lt;/b&gt;:&lt;div&gt;&lt;br&gt;&lt;div style=&quot;text-align: left;&quot;&gt;&lt;span style=&quot;background-color: initial;&quot;&gt;- Mismo preprocesamiento que en primer modelo&lt;/span&gt;&lt;/div&gt;&lt;/div&gt;&lt;div style=&quot;text-align: left;&quot;&gt;&lt;span style=&quot;background-color: initial;&quot;&gt;- Eliminación de estructuras de texto no deseadas&lt;/span&gt;&lt;/div&gt;" style="rounded=1;whiteSpace=wrap;html=1;spacingLeft=7;spacingRight=7;spacingBottom=5;spacingTop=5;" parent="WIyWlLk6GJQsqaUBKTNV-1" vertex="1">
          <mxGeometry x="137.5" y="-250" width="165" height="110" as="geometry" />
        </mxCell>
        <mxCell id="pxoGyMs8ow6GdQlPfcXt-13" style="edgeStyle=orthogonalEdgeStyle;rounded=0;orthogonalLoop=1;jettySize=auto;html=1;exitX=0.5;exitY=1;exitDx=0;exitDy=0;entryX=0.5;entryY=0;entryDx=0;entryDy=0;" parent="WIyWlLk6GJQsqaUBKTNV-1" source="pxoGyMs8ow6GdQlPfcXt-9" target="pxoGyMs8ow6GdQlPfcXt-11" edge="1">
          <mxGeometry relative="1" as="geometry" />
        </mxCell>
        <mxCell id="pxoGyMs8ow6GdQlPfcXt-9" value="Eliminación de &lt;b&gt;StopWords&lt;/b&gt; y &lt;b&gt;palabras coincidentes&lt;/b&gt; en ambos idiomas" style="rounded=1;whiteSpace=wrap;html=1;spacingLeft=5;spacingRight=5;spacingBottom=5;spacingTop=5;" parent="WIyWlLk6GJQsqaUBKTNV-1" vertex="1">
          <mxGeometry x="135" y="-90" width="170" height="70" as="geometry" />
        </mxCell>
        <mxCell id="pxoGyMs8ow6GdQlPfcXt-14" style="edgeStyle=orthogonalEdgeStyle;rounded=0;orthogonalLoop=1;jettySize=auto;html=1;exitX=0.5;exitY=1;exitDx=0;exitDy=0;entryX=0.5;entryY=0;entryDx=0;entryDy=0;" parent="WIyWlLk6GJQsqaUBKTNV-1" source="pxoGyMs8ow6GdQlPfcXt-11" target="WIyWlLk6GJQsqaUBKTNV-6" edge="1">
          <mxGeometry relative="1" as="geometry" />
        </mxCell>
        <mxCell id="pxoGyMs8ow6GdQlPfcXt-11" value="Aplicación del modelo de clasificación&amp;nbsp;&lt;b&gt;Wordnet, &lt;/b&gt;y&amp;nbsp;&lt;b&gt;Langdetect &lt;/b&gt;para clasificar ambigüedades" style="rounded=1;whiteSpace=wrap;html=1;spacingLeft=5;spacingRight=5;spacingBottom=5;spacingTop=5;" parent="WIyWlLk6GJQsqaUBKTNV-1" vertex="1">
          <mxGeometry x="135" y="28" width="170" height="80" as="geometry" />
        </mxCell>
        <mxCell id="AbAtUM588FDry7frb0zo-20" style="edgeStyle=orthogonalEdgeStyle;rounded=0;orthogonalLoop=1;jettySize=auto;html=1;exitX=0;exitY=0.5;exitDx=0;exitDy=0;entryX=1;entryY=0.5;entryDx=0;entryDy=0;" edge="1" parent="WIyWlLk6GJQsqaUBKTNV-1" source="AbAtUM588FDry7frb0zo-7" target="AbAtUM588FDry7frb0zo-11">
          <mxGeometry relative="1" as="geometry" />
        </mxCell>
        <mxCell id="AbAtUM588FDry7frb0zo-21" style="edgeStyle=orthogonalEdgeStyle;rounded=0;orthogonalLoop=1;jettySize=auto;html=1;exitX=1;exitY=0.5;exitDx=0;exitDy=0;" edge="1" parent="WIyWlLk6GJQsqaUBKTNV-1" source="AbAtUM588FDry7frb0zo-7" target="AbAtUM588FDry7frb0zo-12">
          <mxGeometry relative="1" as="geometry" />
        </mxCell>
        <mxCell id="AbAtUM588FDry7frb0zo-7" value="&lt;b&gt;Cálculo %&lt;/b&gt; de idiomas" style="rhombus;whiteSpace=wrap;html=1;shadow=0;fontFamily=Helvetica;fontSize=12;align=center;strokeWidth=1;spacing=6;spacingTop=5;spacingLeft=5;spacingBottom=5;spacingRight=5;" vertex="1" parent="WIyWlLk6GJQsqaUBKTNV-1">
          <mxGeometry x="-182" y="150" width="120" height="100" as="geometry" />
        </mxCell>
        <mxCell id="AbAtUM588FDry7frb0zo-9" style="edgeStyle=orthogonalEdgeStyle;rounded=0;orthogonalLoop=1;jettySize=auto;html=1;exitX=0.5;exitY=1;exitDx=0;exitDy=0;entryX=0;entryY=0.5;entryDx=0;entryDy=0;" edge="1" parent="WIyWlLk6GJQsqaUBKTNV-1" source="AbAtUM588FDry7frb0zo-11" target="FmB_p1AP7Qhsc0N63zgv-10">
          <mxGeometry relative="1" as="geometry">
            <mxPoint x="-310" y="270" as="targetPoint" />
            <mxPoint x="-353" y="370" as="sourcePoint" />
          </mxGeometry>
        </mxCell>
        <mxCell id="AbAtUM588FDry7frb0zo-11" value="Entre 0-5%" style="rounded=1;whiteSpace=wrap;html=1;" vertex="1" parent="WIyWlLk6GJQsqaUBKTNV-1">
          <mxGeometry x="-370" y="180" width="120" height="40" as="geometry" />
        </mxCell>
        <mxCell id="AbAtUM588FDry7frb0zo-12" value="Mayor a 5%" style="rounded=1;whiteSpace=wrap;html=1;" vertex="1" parent="WIyWlLk6GJQsqaUBKTNV-1">
          <mxGeometry x="-10" y="180" width="120" height="40" as="geometry" />
        </mxCell>
        <mxCell id="AbAtUM588FDry7frb0zo-13" style="edgeStyle=orthogonalEdgeStyle;rounded=0;orthogonalLoop=1;jettySize=auto;html=1;exitX=0.5;exitY=1;exitDx=0;exitDy=0;entryX=0.5;entryY=0;entryDx=0;entryDy=0;" edge="1" parent="WIyWlLk6GJQsqaUBKTNV-1" source="AbAtUM588FDry7frb0zo-14" target="AbAtUM588FDry7frb0zo-16">
          <mxGeometry relative="1" as="geometry" />
        </mxCell>
        <mxCell id="AbAtUM588FDry7frb0zo-14" value="&lt;b&gt;Preprocesamiento&lt;/b&gt;:&lt;div&gt;&lt;br&gt;&lt;div style=&quot;text-align: left;&quot;&gt;&lt;span style=&quot;background-color: initial;&quot;&gt;- Eliminar bloques de códigos, tablas y URL.&lt;/span&gt;&lt;/div&gt;&lt;div style=&quot;text-align: left;&quot;&gt;- Eliminar dígitos.&lt;/div&gt;&lt;div&gt;&lt;div style=&quot;text-align: left;&quot;&gt;&lt;span style=&quot;background-color: initial;&quot;&gt;- Eliminar palabras que empiecen en mayúscula.&lt;/span&gt;&lt;/div&gt;&lt;/div&gt;&lt;/div&gt;&lt;div style=&quot;text-align: left;&quot;&gt;&lt;span style=&quot;background-color: initial;&quot;&gt;&lt;br&gt;&lt;/span&gt;&lt;/div&gt;" style="rounded=1;whiteSpace=wrap;html=1;spacingLeft=7;spacingRight=7;spacingBottom=5;spacingTop=5;" vertex="1" parent="WIyWlLk6GJQsqaUBKTNV-1">
          <mxGeometry x="-207" y="-250" width="170" height="130" as="geometry" />
        </mxCell>
        <mxCell id="AbAtUM588FDry7frb0zo-15" style="edgeStyle=orthogonalEdgeStyle;rounded=0;orthogonalLoop=1;jettySize=auto;html=1;exitX=0.5;exitY=1;exitDx=0;exitDy=0;entryX=0.5;entryY=0;entryDx=0;entryDy=0;" edge="1" parent="WIyWlLk6GJQsqaUBKTNV-1" source="AbAtUM588FDry7frb0zo-16" target="AbAtUM588FDry7frb0zo-18">
          <mxGeometry relative="1" as="geometry" />
        </mxCell>
        <mxCell id="AbAtUM588FDry7frb0zo-16" value="División por&lt;b&gt; segmentos, tokenización&lt;/b&gt;, definición de &lt;b&gt;puntuación&lt;/b&gt; por idioma y eliminación de &lt;b&gt;StopWords&lt;/b&gt;" style="rounded=1;whiteSpace=wrap;html=1;spacingLeft=5;spacingRight=5;spacingBottom=5;spacingTop=5;" vertex="1" parent="WIyWlLk6GJQsqaUBKTNV-1">
          <mxGeometry x="-212" y="-90" width="180" height="70" as="geometry" />
        </mxCell>
        <mxCell id="AbAtUM588FDry7frb0zo-17" style="edgeStyle=orthogonalEdgeStyle;rounded=0;orthogonalLoop=1;jettySize=auto;html=1;exitX=0.5;exitY=1;exitDx=0;exitDy=0;entryX=0.5;entryY=0;entryDx=0;entryDy=0;" edge="1" parent="WIyWlLk6GJQsqaUBKTNV-1" source="AbAtUM588FDry7frb0zo-18" target="AbAtUM588FDry7frb0zo-7">
          <mxGeometry relative="1" as="geometry" />
        </mxCell>
        <mxCell id="AbAtUM588FDry7frb0zo-18" value="Aplicación del modelo de clasificación utilizando &lt;b&gt;palabras comunes&lt;/b&gt; y &lt;b&gt;lematización&lt;/b&gt;" style="rounded=1;whiteSpace=wrap;html=1;spacingLeft=5;spacingRight=5;spacingBottom=5;spacingTop=5;" vertex="1" parent="WIyWlLk6GJQsqaUBKTNV-1">
          <mxGeometry x="-207" y="30" width="170" height="70" as="geometry" />
        </mxCell>
        <mxCell id="AbAtUM588FDry7frb0zo-28" value="&lt;b&gt;PRIMER MODELO&lt;/b&gt;" style="text;html=1;align=center;verticalAlign=middle;whiteSpace=wrap;rounded=0;labelBackgroundColor=none;labelBorderColor=none;fillColor=#fff2cc;strokeColor=#d6b656;" vertex="1" parent="WIyWlLk6GJQsqaUBKTNV-1">
          <mxGeometry x="-164.5" y="-330" width="83" height="50" as="geometry" />
        </mxCell>
        <mxCell id="AbAtUM588FDry7frb0zo-32" value="" style="edgeStyle=orthogonalEdgeStyle;rounded=0;orthogonalLoop=1;jettySize=auto;html=1;exitX=0.5;exitY=0;exitDx=0;exitDy=0;entryX=0.5;entryY=0;entryDx=0;entryDy=0;" edge="1" parent="WIyWlLk6GJQsqaUBKTNV-1" source="AbAtUM588FDry7frb0zo-12" target="pxoGyMs8ow6GdQlPfcXt-7">
          <mxGeometry relative="1" as="geometry">
            <mxPoint x="50" y="180" as="sourcePoint" />
            <mxPoint x="220" y="-240" as="targetPoint" />
            <Array as="points">
              <mxPoint x="50" y="-310" />
              <mxPoint x="220" y="-310" />
            </Array>
          </mxGeometry>
        </mxCell>
        <mxCell id="AbAtUM588FDry7frb0zo-26" value="&lt;b&gt;SEGUNDO MODELO&lt;/b&gt;" style="text;html=1;align=center;verticalAlign=middle;whiteSpace=wrap;rounded=0;labelBackgroundColor=none;labelBorderColor=none;fillColor=#d5e8d4;strokeColor=#82b366;" vertex="1" parent="WIyWlLk6GJQsqaUBKTNV-1">
          <mxGeometry x="89.5" y="-330" width="83" height="50" as="geometry" />
        </mxCell>
      </root>
    </mxGraphModel>
  </diagram>
</mxfile>
